<?xml version="1.0" encoding="UTF-8"?> <svg xmlns="http://www.w3.org/2000/svg" width="1280" height="164" viewBox="0 0 1280 164" fill="none"><path d="M0 158.59V5.18353H39.4633C51.5931 5.18353 61.2206 6.06618 68.3458 7.83147C75.1996 9.4665 81.6448 12.4913 87.2822 16.7184C92.9034 20.7713 97.4592 26.1256 100.56 32.3231C103.676 38.4691 105.29 45.2665 105.268 52.1572C105.268 67.6749 99.7492 79.9836 88.7113 89.0833C77.6716 98.1806 62.7011 102.729 43.7998 102.729C41.8247 102.729 40.3436 102.711 39.3563 102.675C38.3679 102.642 37.452 102.588 36.6068 102.519V158.59H0V158.59ZM41.5781 33.3279H36.6068V74.2693H43.272C52.5108 74.2693 59.5635 72.4883 64.4301 68.9263C69.298 65.3679 71.7313 60.2377 71.7301 53.5356C71.7301 46.553 69.3325 41.4385 64.5371 38.1921C59.74 34.9493 52.087 33.3279 41.5781 33.3279Z" fill="#32C2D2"></path><path d="M119.151 158.59V5.18353H158.614C171.237 5.18353 181.023 6.01298 187.972 7.67187C194.614 9.19214 200.889 12.0142 206.433 15.9748C212.006 19.9056 216.558 25.1116 219.711 31.1587C222.814 37.0443 224.43 43.5995 224.419 50.2529C224.419 59.9197 221.968 68.3834 217.066 75.6441C212.162 82.9096 205.092 88.5876 195.854 92.6779L242.616 158.59H200.827L159.884 98.391H154.699V158.59H119.151ZM160.729 33.1138H154.699V75.6441H162.423C171.662 75.6441 178.714 73.776 183.581 70.0399C188.449 66.3001 190.882 60.939 190.881 53.9564C190.881 46.6219 188.518 41.3152 183.793 38.0361C179.067 34.7534 171.379 33.1126 160.729 33.1138Z" fill="#32C2D2"></path><path d="M415.906 158.59V5.18353H510.383V36.8173H451.453V64.5372H501.918V95.957H451.453V126.321H511.23V158.59H415.906Z" fill="#32C2D2"></path><path d="M531.441 158.59V5.18353H567.624V71.9442L618.301 5.18353H661.889L604.018 78.1832L666.439 158.59H622.215L567.624 87.9189V158.59H531.441Z" fill="#32C2D2"></path><path d="M675.202 117.061C681.861 121.155 688.892 124.609 696.201 127.38C702.391 129.636 708.921 130.816 715.509 130.87C721.857 130.87 726.953 129.477 730.796 126.691C734.64 123.905 736.561 120.326 736.562 115.954C736.562 109.675 729.721 102.623 716.039 94.7962C713.851 93.5267 712.159 92.5388 710.961 91.8327L700.592 86.0145C690.504 80.3015 683.028 73.8473 678.162 66.6519C673.291 59.4426 670.743 50.9147 670.862 42.2147C670.862 29.871 675.517 19.7495 684.828 11.8505C694.139 3.95016 706.165 0 720.905 0C726.843 0.0535084 732.761 0.691364 738.573 1.90434C745.751 3.40521 752.819 5.38533 759.732 7.83137V43.7998C753.08 39.5295 746.029 35.9155 738.679 33.0085C732.048 30.4694 726.406 29.1999 721.752 29.1999C716.601 29.1999 712.545 30.311 709.584 32.5334C708.158 33.5609 707.007 34.9236 706.232 36.5013C705.457 38.079 705.082 39.8231 705.14 41.5799C705.157 44.3095 706.089 46.9546 707.787 49.092C709.951 51.7469 712.656 53.9108 715.721 55.4398L733.706 65.3823C748.73 73.707 758.834 81.3957 764.017 88.4484C769.201 95.4999 771.792 103.857 771.792 113.52C771.792 128.476 766.697 140.555 756.505 149.757C746.312 158.96 732.788 163.562 715.932 163.563C709.685 163.511 703.454 162.909 697.313 161.764C689.83 160.367 682.444 158.494 675.201 156.156L675.202 117.061Z" fill="#32C2D2"></path><path d="M789.653 158.59V5.18353H829.116C841.246 5.18353 850.873 6.06618 857.999 7.83147C864.852 9.4665 871.298 12.4913 876.935 16.7184C882.556 20.7713 887.112 26.1256 890.213 32.3231C893.329 38.4691 894.942 45.2665 894.921 52.1572C894.921 67.6749 889.402 79.9836 878.364 89.0833C867.324 98.1806 852.354 102.729 833.453 102.729C831.478 102.729 829.996 102.711 829.009 102.675C828.021 102.642 827.105 102.588 826.26 102.519V158.59H789.653V158.59ZM831.231 33.3279H826.26V74.2693H832.925C842.164 74.2693 849.216 72.4883 854.083 68.9263C858.951 65.3679 861.384 60.2377 861.383 53.5356C861.383 46.553 858.985 41.4385 854.19 38.1921C849.393 34.9493 841.74 33.3279 831.231 33.3279Z" fill="#32C2D2"></path><path d="M909.974 158.59V5.18353H1004.45V36.8173H945.521V64.5372H995.988V95.957H945.521V126.321H1005.3V158.59H909.974Z" fill="#32C2D2"></path><path d="M1027.8 158.59V5.18353H1067.27C1079.89 5.18353 1089.67 6.01298 1096.62 7.67187C1103.26 9.19213 1109.54 12.0142 1115.09 15.9748C1120.66 19.9051 1125.21 25.1113 1128.36 31.1587C1131.47 37.0437 1133.08 43.5993 1133.07 50.2529C1133.07 59.9197 1130.62 68.3834 1125.72 75.6441C1120.81 82.9096 1113.74 88.5876 1104.5 92.678L1151.27 158.59H1109.48L1068.54 98.391H1063.35V158.59H1027.8ZM1069.38 33.1138H1063.35V75.6441H1071.08C1080.31 75.6441 1087.37 73.776 1092.23 70.0399C1097.1 66.3001 1099.53 60.939 1099.53 53.9564C1099.53 46.6219 1097.17 41.3152 1092.44 38.0361C1087.72 34.7534 1080.03 33.1126 1069.38 33.1138Z" fill="#32C2D2"></path><path d="M1192.72 158.59V37.2417H1143.95V5.18353H1280V37.2417H1229.33V158.59H1192.72Z" fill="#32C2D2"></path><path d="M317.496 35.7838C326.614 35.7838 335.528 38.4878 343.11 43.5538C350.692 48.6199 356.601 55.8204 360.091 64.2449C363.58 72.6694 364.493 81.9395 362.714 90.8829C360.935 99.8263 356.544 108.041 350.097 114.489C343.649 120.937 335.434 125.328 326.49 127.107C317.547 128.886 308.277 127.973 299.852 124.483C291.428 120.994 284.227 115.084 279.161 107.503C274.095 99.9208 271.391 91.0069 271.391 81.8883C271.405 69.6649 276.267 57.9461 284.91 49.3028C293.553 40.6595 305.272 35.7976 317.496 35.7838ZM317.496 0.213867C301.342 0.213867 285.551 5.00399 272.12 13.9785C258.689 22.953 248.22 35.7088 242.038 50.6328C235.857 65.5569 234.239 81.9789 237.391 97.8221C240.542 113.665 248.321 128.218 259.743 139.641C271.166 151.063 285.719 158.842 301.562 161.993C317.405 165.145 333.827 163.527 348.751 157.346C363.675 151.164 376.431 140.695 385.406 127.264C394.38 113.833 399.17 98.042 399.17 81.8883C399.17 60.2269 390.565 39.4527 375.248 24.1358C359.931 8.81886 339.157 0.213896 317.496 0.213877V0.213867Z" fill="#32C2D2"></path></svg> 